<svg width="2111" height="662" viewBox="0 0 2111 662" fill="none" xmlns="http://www.w3.org/2000/svg">
<g clip-path="url(#clip0_1_10)">
<path d="M293.689 428.256C292.937 438.346 286.806 447.347 277.692 451.741L254.087 463.127C253.323 463.49 252.651 463.97 252.014 464.494C251.874 464.604 251.747 464.712 251.62 464.819C251.029 465.354 250.488 465.944 250.034 466.594C250.014 466.623 249.979 466.643 249.954 466.68C249.904 466.753 249.881 466.834 249.838 466.913C249.437 467.534 249.112 468.185 248.845 468.877C248.797 468.995 248.742 469.108 248.701 469.231C248.442 469.991 248.283 470.778 248.206 471.587C248.195 471.666 248.165 471.742 248.154 471.821L244.261 524.088C243.985 527.832 245.727 531.443 248.825 533.554L292.145 563.062C295.251 565.177 299.242 565.472 302.624 563.843L349.837 541.084C353.22 539.456 355.475 536.144 355.757 532.392L359.65 480.126C359.661 480.047 359.634 479.975 359.633 479.898C359.67 479.084 359.639 478.276 359.489 477.484C359.465 477.36 359.424 477.246 359.401 477.122C359.245 476.402 359.015 475.696 358.708 475.023C358.655 474.912 358.621 474.803 358.568 474.691C358.222 473.981 357.777 473.322 357.267 472.695C357.152 472.563 357.044 472.435 356.925 472.311C356.38 471.703 355.778 471.131 355.079 470.655L333.419 455.901C325.058 450.206 320.327 440.4 321.08 430.31C321.833 420.221 327.959 411.227 337.077 406.825L360.682 395.44C361.447 395.077 362.118 394.597 362.751 394.08C362.89 393.97 363.017 393.863 363.149 393.748C363.745 393.205 364.282 392.623 364.728 391.968C364.793 391.872 364.844 391.767 364.914 391.664C365.32 391.035 365.651 390.377 365.917 389.685C365.96 389.575 366.015 389.461 366.051 389.346C366.311 388.585 366.467 387.786 366.544 386.977C366.555 386.898 366.58 386.829 366.591 386.75L370.483 334.484C370.76 330.739 369.018 327.128 365.92 325.018L322.6 295.51C319.494 293.394 315.503 293.1 312.12 294.729L264.908 317.487C264.839 317.526 264.779 317.582 264.714 317.614C263.989 317.982 263.311 318.425 262.703 318.937C262.603 319.02 262.518 319.113 262.426 319.201C261.88 319.702 261.393 320.243 260.962 320.844C260.912 320.918 260.838 320.964 260.787 321.037C260.767 321.067 260.762 321.106 260.737 321.143C260.291 321.798 259.945 322.511 259.666 323.269C259.6 323.429 259.554 323.591 259.503 323.761C259.253 324.539 259.06 325.345 258.99 326.192L257.037 352.326C256.285 362.416 250.158 371.409 241.04 375.811C231.927 380.206 221.07 379.393 212.709 373.698L191.049 358.944C190.35 358.468 189.598 358.117 188.832 357.833C188.667 357.775 188.515 357.714 188.35 357.655C187.592 357.408 186.81 357.242 186.016 357.175C185.892 357.166 185.779 357.175 185.655 357.167C184.917 357.127 184.176 357.172 183.448 357.29C183.325 357.314 183.203 357.317 183.08 357.341C182.29 357.504 181.524 357.758 180.78 358.091C180.716 358.123 180.634 358.132 180.562 358.158L133.35 380.917C131.66 381.737 130.252 382.966 129.229 384.467C128.206 385.968 127.574 387.736 127.434 389.601L123.542 441.868C123.265 445.612 125.007 449.223 128.105 451.334L171.425 480.842C174.531 482.957 178.522 483.252 181.904 481.623L229.117 458.864C229.186 458.826 229.241 458.777 229.311 458.738C230.036 458.37 230.722 457.932 231.334 457.412C231.429 457.336 231.502 457.246 231.596 457.17C232.154 456.667 232.652 456.111 233.087 455.503C233.153 455.407 233.227 455.329 233.293 455.233C233.739 454.578 234.089 453.858 234.369 453.1C234.429 452.948 234.475 452.785 234.529 452.627C234.779 451.849 234.972 451.044 235.035 450.192L236.98 424.053C237.733 413.963 243.864 404.962 252.972 400.575C262.086 396.18 272.943 396.993 281.303 402.688C289.664 408.383 294.395 418.189 293.642 428.278L293.689 428.256Z" fill="black"/>
<path d="M443.711 231.299L396.498 254.058C394.808 254.878 393.4 256.107 392.378 257.608C391.355 259.11 390.722 260.877 390.583 262.743L386.69 315.009C386.679 315.088 386.706 315.16 386.708 315.237C386.67 316.051 386.701 316.859 386.851 317.651C386.875 317.775 386.916 317.889 386.939 318.013C387.095 318.733 387.325 319.439 387.632 320.112C387.685 320.223 387.719 320.332 387.772 320.444C388.118 321.154 388.564 321.813 389.074 322.44C389.188 322.572 389.296 322.699 389.416 322.824C389.96 323.432 390.562 324.004 391.261 324.48L412.921 339.234C421.282 344.929 426.013 354.735 425.255 364.832C424.497 374.929 418.376 383.915 409.258 388.317L385.653 399.702C384.888 400.065 384.217 400.545 383.584 401.063C383.445 401.172 383.318 401.28 383.186 401.394C382.595 401.929 382.053 402.519 381.605 403.162C381.585 403.191 381.545 403.218 381.525 403.248C381.475 403.321 381.459 403.408 381.409 403.481C381.007 404.102 380.677 404.761 380.416 405.445C380.368 405.563 380.313 405.676 380.277 405.792C380.017 406.552 379.861 407.351 379.784 408.16C379.773 408.239 379.748 408.308 379.737 408.387L375.844 460.654C375.568 464.398 377.31 468.009 380.408 470.12L423.728 499.628C426.834 501.743 430.825 502.037 434.207 500.409L481.42 477.65C484.802 476.021 487.058 472.71 487.34 468.958L491.233 416.691C491.244 416.612 491.217 416.541 491.216 416.464C491.253 415.649 491.222 414.841 491.072 414.049C491.048 413.926 491.007 413.812 490.984 413.688C490.828 412.968 490.598 412.261 490.291 411.589C490.238 411.477 490.204 411.368 490.151 411.257C489.805 410.547 489.36 409.888 488.85 409.26C488.735 409.128 488.627 409.001 488.508 408.877C487.963 408.268 487.361 407.697 486.662 407.221L465.002 392.467C456.641 386.772 451.91 376.966 452.663 366.876C453.416 356.787 459.547 347.786 468.66 343.391L492.265 332.006C493.03 331.643 493.701 331.163 494.339 330.638C494.478 330.528 494.605 330.421 494.732 330.314C495.328 329.771 495.865 329.189 496.319 328.539C496.384 328.443 496.434 328.337 496.504 328.234C496.906 327.613 497.241 326.947 497.507 326.256C497.55 326.145 497.606 326.032 497.641 325.916C497.901 325.156 498.057 324.357 498.134 323.548C498.145 323.469 498.17 323.4 498.181 323.321L502.074 271.054C502.351 267.31 500.608 263.699 497.51 261.588L454.19 232.081C451.084 229.965 447.094 229.671 443.711 231.299Z" fill="black"/>
<path d="M192.79 335.984L240.002 313.225C240.071 313.186 240.131 313.13 240.196 313.099C240.921 312.731 241.599 312.288 242.212 311.768C242.312 311.685 242.392 311.599 242.484 311.511C243.03 311.01 243.527 310.455 243.958 309.854C244.023 309.758 244.103 309.672 244.168 309.577C244.614 308.922 244.965 308.202 245.244 307.444C245.305 307.291 245.351 307.129 245.404 306.971C245.654 306.193 245.852 305.38 245.91 304.536L247.855 278.396C248.608 268.307 254.734 259.313 263.848 254.918C272.961 250.524 283.823 251.329 292.184 257.024L313.844 271.778C314.543 272.254 315.295 272.605 316.06 272.889C316.225 272.948 316.378 273.008 316.543 273.067C317.301 273.314 318.082 273.48 318.877 273.547C319 273.556 319.114 273.547 319.237 273.556C319.976 273.595 320.717 273.551 321.444 273.432C321.568 273.408 321.689 273.405 321.813 273.381C322.602 273.219 323.368 272.965 324.112 272.631C324.177 272.6 324.259 272.591 324.33 272.564L371.543 249.805C374.926 248.177 377.181 244.865 377.463 241.114L381.356 188.847C381.633 185.103 379.891 181.492 376.792 179.381L333.473 149.873C330.367 147.757 326.376 147.463 322.993 149.092L275.781 171.851C275.711 171.889 275.651 171.946 275.582 171.984C274.857 172.353 274.183 172.788 273.571 173.308C273.471 173.391 273.381 173.491 273.289 173.579C272.748 174.073 272.261 174.614 271.835 175.207C271.785 175.281 271.705 175.334 271.655 175.408C271.635 175.437 271.625 175.484 271.605 175.514C271.164 176.161 270.813 176.882 270.531 177.627C270.466 177.787 270.42 177.95 270.368 178.12C270.119 178.898 269.925 179.703 269.86 180.542L267.908 206.677C267.155 216.766 261.029 225.76 251.91 230.162C242.797 234.556 231.94 233.744 223.579 228.049L201.919 213.295C201.22 212.819 200.468 212.468 199.703 212.184C199.538 212.125 199.385 212.065 199.22 212.006C198.462 211.759 197.681 211.593 196.886 211.526C196.763 211.517 196.649 211.526 196.526 211.517C195.787 211.478 195.046 211.522 194.319 211.641C194.195 211.665 194.074 211.668 193.95 211.692C193.161 211.854 192.395 212.109 191.651 212.442C191.586 212.473 191.504 212.482 191.433 212.509L144.22 235.268C142.53 236.088 141.122 237.316 140.1 238.818C139.077 240.319 138.444 242.086 138.305 243.952L134.412 296.219C134.135 299.963 135.877 303.574 138.976 305.685L182.295 335.193C185.401 337.308 189.392 337.603 192.775 335.974L192.79 335.984Z" fill="black"/>
</g>
<path d="M676.535 508L611.216 276.556H656.306L698.007 446.636H700.154L744.68 276.556H785.702L830.341 446.749H832.375L874.076 276.556H919.167L853.847 508H812.486L766.152 345.605H764.343L717.897 508H676.535ZM933.701 508V334.417H974.61V508H933.701ZM954.268 309.781C947.789 309.781 942.214 307.634 937.543 303.34C932.872 298.97 930.536 293.734 930.536 287.631C930.536 281.453 932.872 276.217 937.543 271.923C942.214 267.553 947.789 265.368 954.268 265.368C960.823 265.368 966.398 267.553 970.994 271.923C975.665 276.217 978 281.453 978 287.631C978 293.734 975.665 298.97 970.994 303.34C966.398 307.634 960.823 309.781 954.268 309.781ZM1041.24 453.529L1041.13 404.144H1047.68L1110.06 334.417H1157.87L1081.13 419.853H1072.66L1041.24 453.529ZM1003.95 508V276.556H1044.86V508H1003.95ZM1112.89 508L1056.39 429.006L1083.96 400.189L1161.82 508H1112.89ZM1172.4 508V334.417H1213.31V508H1172.4ZM1192.97 309.781C1186.49 309.781 1180.92 307.634 1176.24 303.34C1171.57 298.97 1169.24 293.734 1169.24 287.631C1169.24 281.453 1171.57 276.217 1176.24 271.923C1180.92 267.553 1186.49 265.368 1192.97 265.368C1199.52 265.368 1205.1 267.553 1209.69 271.923C1214.37 276.217 1216.7 281.453 1216.7 287.631C1216.7 293.734 1214.37 298.97 1209.69 303.34C1205.1 307.634 1199.52 309.781 1192.97 309.781ZM1310.67 508V276.556H1458.93V311.702H1352.59V374.536H1448.76V409.682H1352.59V508H1310.67ZM1545.57 511.39C1528.62 511.39 1513.93 507.661 1501.49 500.202C1489.06 492.744 1479.42 482.309 1472.56 468.899C1465.78 455.488 1462.39 439.818 1462.39 421.887C1462.39 403.956 1465.78 388.248 1472.56 374.762C1479.42 361.276 1489.06 350.804 1501.49 343.345C1513.93 335.886 1528.62 332.157 1545.57 332.157C1562.52 332.157 1577.21 335.886 1589.64 343.345C1602.07 350.804 1611.68 361.276 1618.46 374.762C1625.32 388.248 1628.74 403.956 1628.74 421.887C1628.74 439.818 1625.32 455.488 1618.46 468.899C1611.68 482.309 1602.07 492.744 1589.64 500.202C1577.21 507.661 1562.52 511.39 1545.57 511.39ZM1545.79 478.618C1554.99 478.618 1562.67 476.094 1568.85 471.046C1575.03 465.923 1579.62 459.067 1582.64 450.478C1585.72 441.889 1587.27 432.321 1587.27 421.774C1587.27 411.151 1585.72 401.545 1582.64 392.956C1579.62 384.292 1575.03 377.399 1568.85 372.276C1562.67 367.152 1554.99 364.591 1545.79 364.591C1536.38 364.591 1528.54 367.152 1522.29 372.276C1516.11 377.399 1511.48 384.292 1508.39 392.956C1505.37 401.545 1503.87 411.151 1503.87 421.774C1503.87 432.321 1505.37 441.889 1508.39 450.478C1511.48 459.067 1516.11 465.923 1522.29 471.046C1528.54 476.094 1536.38 478.618 1545.79 478.618ZM1650.74 508V334.417H1690.4V363.348H1692.21C1695.37 353.328 1700.8 345.605 1708.48 340.181C1716.24 334.681 1725.1 331.931 1735.04 331.931C1737.3 331.931 1739.83 332.044 1742.61 332.27C1745.48 332.421 1747.85 332.684 1749.73 333.061V370.693C1748 370.091 1745.25 369.563 1741.48 369.111C1737.79 368.584 1734.21 368.32 1730.75 368.32C1723.29 368.32 1716.58 369.94 1710.63 373.18C1704.75 376.344 1700.12 380.751 1696.73 386.402C1693.34 392.052 1691.65 398.569 1691.65 405.952V508H1650.74ZM1832.52 576.71C1817.83 576.71 1805.21 574.713 1794.67 570.72C1784.12 566.803 1775.64 561.529 1769.24 554.899C1762.84 548.269 1758.39 540.923 1755.9 532.862L1792.75 523.934C1794.4 527.325 1796.81 530.677 1799.98 533.992C1803.14 537.382 1807.4 540.17 1812.75 542.355C1818.17 544.615 1824.99 545.745 1833.2 545.745C1844.8 545.745 1854.41 542.92 1862.02 537.269C1869.63 531.694 1873.43 522.503 1873.43 509.695V476.809H1871.4C1869.29 481.028 1866.2 485.36 1862.13 489.805C1858.14 494.251 1852.83 497.98 1846.2 500.993C1839.64 504.007 1831.39 505.514 1821.45 505.514C1808.11 505.514 1796.02 502.387 1785.17 496.134C1774.4 489.805 1765.81 480.388 1759.41 467.882C1753.08 455.3 1749.91 439.554 1749.91 420.644C1749.91 401.583 1753.08 385.498 1759.41 372.389C1765.81 359.204 1774.44 349.222 1785.29 342.441C1796.14 335.585 1808.23 332.157 1821.56 332.157C1831.73 332.157 1840.1 333.89 1846.65 337.356C1853.28 340.746 1858.55 344.852 1862.47 349.674C1866.39 354.42 1869.37 358.903 1871.4 363.122H1873.66V334.417H1914V510.825C1914 525.667 1910.46 537.948 1903.38 547.666C1896.3 557.385 1886.62 564.655 1874.34 569.477C1862.06 574.299 1848.12 576.71 1832.52 576.71ZM1832.86 473.419C1841.53 473.419 1848.91 471.31 1855.01 467.091C1861.12 462.872 1865.75 456.807 1868.91 448.896C1872.08 440.985 1873.66 431.493 1873.66 420.418C1873.66 409.493 1872.08 399.925 1868.91 391.713C1865.82 383.501 1861.23 377.135 1855.13 372.615C1849.1 368.019 1841.68 365.721 1832.86 365.721C1823.75 365.721 1816.14 368.094 1810.04 372.841C1803.93 377.587 1799.34 384.104 1796.25 392.391C1793.16 400.603 1791.62 409.945 1791.62 420.418C1791.62 431.04 1793.16 440.345 1796.25 448.331C1799.41 456.242 1804.05 462.419 1810.15 466.865C1816.33 471.234 1823.9 473.419 1832.86 473.419ZM2020.05 511.39C2002.64 511.39 1987.61 507.774 1974.96 500.541C1962.38 493.233 1952.69 482.912 1945.91 469.577C1939.13 456.166 1935.74 440.383 1935.74 422.226C1935.74 404.37 1939.13 388.7 1945.91 375.214C1952.77 361.653 1962.34 351.105 1974.62 343.571C1986.9 335.962 2001.33 332.157 2017.9 332.157C2028.6 332.157 2038.69 333.89 2048.19 337.356C2057.76 340.746 2066.19 346.02 2073.5 353.177C2080.88 360.334 2086.69 369.45 2090.91 380.525C2095.12 391.525 2097.23 404.634 2097.23 419.853V432.397H1954.95V404.822H2058.02C2057.94 396.987 2056.25 390.018 2052.93 383.915C2049.62 377.738 2044.99 372.878 2039.03 369.337C2033.16 365.796 2026.3 364.026 2018.47 364.026C2010.1 364.026 2002.76 366.06 1996.43 370.128C1990.1 374.121 1985.17 379.395 1981.62 385.95C1978.16 392.429 1976.39 399.548 1976.31 407.308V431.38C1976.31 441.475 1978.16 450.139 1981.85 457.372C1985.54 464.529 1990.7 470.029 1997.33 473.871C2003.96 477.638 2011.72 479.522 2020.61 479.522C2026.56 479.522 2031.95 478.693 2036.77 477.035C2041.6 475.303 2045.78 472.779 2049.32 469.464C2052.86 466.149 2055.53 462.043 2057.34 457.146L2095.54 461.44C2093.13 471.536 2088.53 480.35 2081.75 487.884C2075.05 495.343 2066.46 501.144 2055.99 505.288C2045.51 509.356 2033.53 511.39 2020.05 511.39Z" fill="black"/>
<defs>
<clipPath id="clip0_1_10">
<rect width="460" height="500" fill="white" transform="translate(672.205 281.485) rotate(124.261)"/>
</clipPath>
</defs>
</svg>
